<?xml version="1.0" encoding="utf-8"?>
<!-- Generator: Adobe Illustrator 27.5.0, SVG Export Plug-In . SVG Version: 6.00 Build 0)  -->
<svg version="1.1" id="ASPIRE_TV" xmlns="http://www.w3.org/2000/svg" xmlns:xlink="http://www.w3.org/1999/xlink" x="0px" y="0px"
	 viewBox="0 0 624 197" style="enable-background:new 0 0 624 197;" xml:space="preserve">
<style type="text/css">
	.st0{fill:#FFFFFF;}
	.st1{fill:#FDE700;}
</style>
<g id="aspire">
	<g>
		<path class="st0" d="M68.5,144c-14.6,0-27.3-5-37.8-14.8c-10.5-9.9-15.9-22-15.9-35.8c0-13.9,5.3-25.9,15.9-35.8
			c10.5-9.8,23.2-14.8,37.8-14.8c9.5,0,18.8,2.4,27.5,7.2c3.9,2.1,7.3,4.6,10.2,7.4V44.9h15.6v97h-15.6v-12.8
			c-3.1,3-6.6,5.7-10.7,7.9C87.1,141.7,78,144,68.5,144z M68.7,57.2c-10.4,0-19.3,3.6-26.9,11c-7.6,7.3-11.3,15.6-11.3,25.4
			s3.7,18,11.3,25.2c7.7,7.3,16.5,10.8,27.1,10.8c10.5,0,19.3-3.5,26.7-10.8c7.4-7.2,11-15.5,11-25.3S103,75.3,95.5,68.1
			C87.9,60.7,79.1,57.2,68.7,57.2z"/>
	</g>
	<g>
		<path class="st0" d="M162,144c-6.2,0-12-1.3-17.3-3.9c-5.6-2.7-9.7-6.3-12.4-10.9l-0.6-1V97.7l8.6,17.9
			c4.5,9.3,11.4,13.9,21.1,13.9c6.1,0,11.1-1.7,15.1-5.2c3.9-3.3,5.8-6.8,5.8-10.6c0-4.1-1.2-7.3-3.5-10c-2.7-3.1-6.1-5.8-10.1-8
			c-4.4-2.5-8.8-4.9-13.1-7.3c-4.8-2.6-8.9-5.9-12.3-9.7c-3.8-4.3-5.8-9.4-5.8-15.1c0-6,2.5-11.1,7.5-15.2c4.7-3.9,10.8-5.8,18-5.8
			c7.4,0,13.9,2.8,19.1,8.2l1.3,1.3v24l-8.2-11.6c-3.5-5-7.8-7.5-13-7.5c-2.5,0-4.7,0.8-6.7,2.3c-1.7,1.4-2.5,2.8-2.5,4.7
			c0,1.9,1,3.8,3.1,5.6c2.8,2.5,6.3,4.8,10.3,6.9c4.4,2.3,8.9,4.8,13.3,7.4c4.9,2.9,9.1,6.6,12.5,11.1c3.7,4.8,5.6,10.4,5.6,16.6
			c0,9-3.6,16.8-10.7,23C180.3,140.9,171.8,144,162,144z"/>
	</g>
	<g>
		<path class="st0" d="M224.2,192.6h-15.6V44.9h15.6v12.6c3.1-3,6.7-5.6,10.8-7.8c8.5-4.6,17.6-7,26.8-7c14.8,0,27.5,5,37.9,14.8
			c10.5,9.9,15.8,22,15.8,35.8c0,13.9-5.3,25.9-15.8,35.8c-10.4,9.8-23.1,14.8-37.9,14.8c-9,0-17.8-2.3-26.3-6.9
			c-4.3-2.3-8-5-11.3-8.2V192.6z M262,57.2c-10.5,0-19.3,3.6-26.9,11c-7.6,7.3-11.3,15.6-11.3,25.4s3.7,18,11.3,25.2
			c7.7,7.3,16.5,10.8,27.1,10.8c10.5,0,19.3-3.5,26.7-10.8c7.4-7.2,11-15.5,11-25.3s-3.6-18.2-11.1-25.4
			C281.2,60.7,272.4,57.2,262,57.2z"/>
	</g>
	<g>
		<rect x="327" y="45.1" class="st0" width="15.6" height="96.8"/>
	</g>
	<g>
		<path class="st0" d="M375.5,141.9h-15.6v-97h15.6v5.9c1.5-1.1,3.1-2.2,4.9-3.2c5.9-3.2,12.5-4.9,19.7-4.9c7.4,0,14.5,2.4,21.2,7.1
			l1.9,1.3v20.6l-7.6-7.2c-5.2-5-10.8-7.4-16.9-7.4c-6.2,0-11.5,2.2-16.2,6.6s-6.9,9.2-6.9,14.9v63.3H375.5z"/>
	</g>
	<g>
		<path class="st0" d="M482.5,144.2h-1.9c-14.2,0-26.8-5.1-37.3-15.2c-10.6-10.2-15.9-22.2-15.9-35.8s5.3-25.5,15.9-35.5
			c10.5-9.8,23.5-14.8,38.8-14.8c15.4,0,28.8,5.9,39.8,17.4l3.1,3.3l-64.1,59.9c6.5,4.1,12.8,6.2,18.7,6.2c7.5,0,14.2-1.6,20-4.8
			c5.9-3.2,10.9-7.6,14.7-13l8.2-11.5v25.9l-1.3,1.3C510.6,138.6,497.6,144.2,482.5,144.2z M480.3,57.4c-9.8,0-18.4,3.5-26,10.8
			c-7.6,7.2-11.3,15.2-11.3,24.4c0,7.8,2.2,14.7,6.8,20.8l52.7-49.6C495.8,59.5,488.5,57.4,480.3,57.4z"/>
	</g>
</g>
<g id="Arrowhead">
	<path class="st0" d="M354.6,35.7H313l20.8-31.1L354.6,35.7z"/>
</g>
<polygon id="focus_box_left" class="st1" points="196.5,162 0,162 0,22 312.9,22 312.9,26 4,26 4,158 196.5,158 "/>
<polygon id="focus_box" class="st1" points="624,162 236,162 236,158 620,158 620,26 357,26 357,22 624,22 "/>
<g id="TV">
	<path class="st0" d="M534.3,98.2h29.2v8.3h-9.9v33.3h-9.5v-33.3h-9.9v-8.3H534.3z"/>
	<path class="st0" d="M567.2,98.2h10.7l10.5,27.3l10.5-27.3h10.7l-17.4,41.6h-7.5L567.2,98.2z"/>
</g>
</svg>
