<?xml version="1.0" encoding="utf-8"?>
<!-- Generator: Adobe Illustrator 22.0.1, SVG Export Plug-In . SVG Version: 6.00 Build 0)  -->
<svg version="1.1" id="Layer_1" xmlns="http://www.w3.org/2000/svg" xmlns:xlink="http://www.w3.org/1999/xlink" x="0px" y="0px"
	 width="1000px" height="551.3544922px" viewBox="0 0 1000 551.3544922" enable-background="new 0 0 1000 551.3544922"
	 xml:space="preserve">
<g>
	<path d="M30.0566158,407.5177307c7.2093296-48.9236755,48.2973022-86.0527344,99.1122665-86.0527344
		c50.8331299,0,92.3376617,37.1290588,99.5439301,86.0527344H30.0566158z M129.1688843,292.8070374
		C58.0273476,292.8070374,0,350.572876,0,421.8603821c0,71.2843933,58.0273476,129.4941101,129.1688843,129.4941101
		c52.9402771,0,97.8594666-31.6347046,117.7299652-76.7879639h-32.607666
		c-17.3650055,28.2504578-48.6926117,47.6740112-85.1222992,47.6740112c-50.8149643,0-91.9029388-37.5274658-99.1122665-86.0466919
		h227.4356995c0.4136047-4.6490784,1.2709961-9.6783447,1.2709961-14.3334656
		C258.7633057,350.572876,200.7481995,292.8070374,129.1688843,292.8070374"/>
	<path d="M403.4959106,522.2411499c-55.8928528,0-101.2346191-44.2714844-101.2346191-100.3740845
		c0-55.6950989,45.3417664-100.4014282,101.2346191-100.4014282c55.4761963,0,100.7876282,44.7063293,100.7876282,100.4014282
		C504.2835388,477.9696655,458.9721069,522.2411499,403.4959106,522.2411499 M504.2835388,349.3207397
		c-19.472229-29.5304871-51.2285461-56.5130615-100.7876282-56.5130615
		c-71.6037292,0-130.4520264,57.7658691-130.4520264,129.0593872c0,71.6979675,58.8482971,129.4850464,130.4520264,129.4850464
		c49.559082,0,81.3153992-27.4356079,100.7876282-56.519165v49.3371582h29.2355652V299.9471436h-29.2355652V349.3207397z"/>
	<path d="M721.8397217,244.7025452h-29.208313v55.2481995h-22.4519653c-35.1557007,0-61.4267578,18.1525574-72.4277344,38.8075256
		v-38.8075256h-28.7855835v244.2199707h28.7855835V393.6141357c1.6936035-38.4091492,36.5909424-64.9689636,72.4277344-64.9689636
		h22.4519653v158.1581116c0,31.6437988,26.2649536,57.3674316,57.5894775,57.3674316h22.0322876v-29.0866089h-22.0322876
		c-15.668396,0-28.3811646-12.6641846-28.3811646-28.2808228V328.6451721h50.4134521v-28.6944275h-50.4134521V244.7025452z"/>
	<path d="M902.1467285,292.8070374c-38.5309448,0-71.1506958,25.2949524-82.1790771,48.4889221V220.8263702h-29.1931152v323.3431396
		h29.1931152V393.6159973c1.3106079-40.081543,41.5166626-72.151001,82.1790771-72.151001
		c41.4983521,0,69.4660034,27.4142456,69.4660034,68.7606506v153.9438477H1000V390.225647
		C1000,332.8673401,963.171936,292.8070374,902.1467285,292.8070374"/>
	<path d="M21.4530773,0h211.9438019v198.6380157H21.4530773V0z M122.2316132,27.8521423H77.0387726v143.0492554h52.9859314
		h0.0364685c18.9309692,0,32.1972504-5.0869904,40.7535553-12.6641388
		c8.5350494-7.552948,12.2384949-17.4289551,12.2232819-26.54776c0.0730286-18.0491714-12.0196075-31.7563019-31.3245392-37.0286789
		c5.1964722-2.6514511,9.3287201-5.8866653,12.338913-9.8395386c4.0410156-5.3119049,5.9657135-11.8097916,5.9657135-19.3718338
		c0-9.3012428-3.6700287-18.7941017-11.5544281-25.9000626c-7.8661194-7.0724602-19.8460999-11.6972427-36.1682129-11.6972427
		H122.2316132z M102.7990036,50.1946373h17.2737961c9.4472046,0,15.272995,2.1680031,18.7332306,5.202507
		c3.4450226,3.0498123,4.8164063,7.1090202,4.8285522,11.8828239c-0.0456543,6.9264984-2.228775,11.5209351-6.7866516,14.7926178
		c-4.5731049,3.2990494-11.9497375,5.1386642-22.2026596,5.1082306h-11.8462677V50.1946373z M102.7990036,109.5233078h23.3367691
		c10.8915253,0,18.6298676,2.2075348,23.47966,5.6251755c4.7951508,3.4602356,6.999527,7.9968643,7.0512085,13.6889343
		c-0.0364685,4.7281494-1.4868164,9.4684601-5.7224121,13.1963043c-4.2416382,3.7004852-11.5695648,6.525177-23.7229767,6.525177
		h-24.4222488V109.5233078z"/>
	<path d="M265.6686401,0h211.9467773v198.6380157H265.6686401V0z M366.4623108,27.8521423h-45.2079773v143.0492554h53.0011597
		h0.0364685c18.9126892,0,32.1971436-5.0869904,40.7534485-12.6641388
		c8.5533447-7.552948,12.2233887-17.4289551,12.2051086-26.54776c0.0881348-18.0491714-12.0104065-31.7563019-31.3093262-37.0286789
		c5.1903687-2.6514511,9.3377991-5.8866653,12.3479919-9.8395386c4.0470581-5.3119049,5.9596252-11.8097916,5.944397-19.3718338
		c0.0152283-9.3012428-3.6456299-18.7941017-11.5695496-25.9000626
		c-7.8721619-7.0724602-19.8096313-11.6972427-36.1530151-11.6972427H366.4623108z M346.9841309,50.1946373h17.3041382
		c9.4381104,0,15.2912903,2.1680031,18.7393494,5.202507c3.4754639,3.0498123,4.8042603,7.1090202,4.8407288,11.8828239
		c-0.0364685,6.9264984-2.2470703,11.5209351-6.8049316,14.7926178c-4.5731201,3.2990494-11.9131775,5.1386642-22.1965332,5.1082306
		h-11.8827515V50.1946373z M346.9841309,109.5233078h23.3823242c10.8733521,0,18.5995178,2.2075348,23.4523926,5.6251755
		c4.8345947,3.4602356,7.0116882,7.9968643,7.0421143,13.6889343c0,4.7281494-1.4716797,9.4684601-5.7164001,13.1963043
		c-4.2112732,3.7004852-11.5483093,6.525177-23.6925049,6.525177h-24.467926V109.5233078z"/>
	<path d="M509.8792114,0h211.9772339v198.6380157H509.8792114V0z M625.2071533,26.0246868
		c-24.0088501-0.0151253-44.8765869,7.8782711-59.7179565,21.3087864
		c-14.8778076,13.3969193-23.6894531,32.3400497-23.6894531,54.0835724
		c0.0151367,15.1514435,6.3032227,32.9086838,19.7457886,46.992836
		c13.4091797,14.0872955,34.052002,24.3737183,62.3510132,24.3737183h0.0820923
		c23.4979858,0,39.8109741-5.2481689,54.5032349-12.4361572l1.2710571-0.6264343v-27.1071167l-3.3903809,2.0767059
		c-16.4224243,9.9853973-34.270874,15.3217163-50.4987183,15.3217163
		c-34.6965332-0.1246185-57.5620728-20.6184998-57.6654663-50.4318161
		c0.0456543-29.1322174,23.9115601-50.7267113,56.7897949-50.8088341c16.756958,0.0152168,31.9205322,4.3085442,49.9301758,14.15411
		l3.3049927,1.8091736V38.114254l-1.4137573-0.5503502c-20.2901611-7.984705-36.0040894-11.539217-51.5325317-11.539217H625.2071533
		z"/>
</g>
</svg>
